<?xml version="1.0" standalone="no"?>
<!DOCTYPE svg PUBLIC "-//W3C//DTD SVG 20010904//EN"
 "http://www.w3.org/TR/2001/REC-SVG-20010904/DTD/svg10.dtd">
<svg version="1.0" xmlns="http://www.w3.org/2000/svg"
 width="499.000000pt" height="503.000000pt" viewBox="0 0 499.000000 503.000000"
 preserveAspectRatio="xMidYMid meet">
<metadata>
Created by potrace 1.16, written by Peter Selinger 2001-2019
</metadata>
<g transform="translate(0.000000,503.000000) scale(0.100000,-0.100000)"
fill="#000000" stroke="none">
<path d="M2306 4742 c-2 -4 -2 -62 1 -130 5 -109 8 -122 24 -122 16 0 19 11
21 88 l3 87 42 -87 c37 -77 45 -88 68 -88 l25 0 0 130 c0 128 0 130 -23 130
-21 0 -22 -2 -18 -86 1 -48 -1 -84 -6 -81 -4 3 -26 42 -48 86 -31 65 -43 81
-61 81 -13 0 -25 -3 -28 -8z"/>
<path d="M2198 4688 c4 -29 7 -80 7 -113 0 -58 -1 -60 -27 -63 -34 -4 -42 14
-52 108 -10 91 -14 100 -41 100 -21 0 -23 -4 -19 -32 26 -190 36 -211 102
-216 34 -3 47 2 67 22 28 29 29 37 14 158 -11 82 -13 88 -35 88 -22 0 -23 -2
-16 -52z"/>
<path d="M2576 4647 c-21 -50 -45 -106 -52 -123 -12 -29 -12 -32 7 -37 14 -4
23 2 34 24 14 25 21 29 58 29 40 0 44 -2 52 -32 7 -23 17 -34 33 -36 12 -2 22
-1 22 1 0 7 -50 230 -56 250 -3 11 -15 17 -32 17 -25 0 -31 -9 -66 -93z"/>
<path d="M2770 4601 c-22 -119 -21 -141 5 -141 9 0 17 24 26 73 16 92 25 112
34 72 32 -142 39 -160 67 -163 25 -3 27 0 37 50 37 188 37 208 8 208 -10 0
-18 -24 -27 -77 -7 -43 -16 -84 -20 -91 -4 -8 -15 23 -25 70 -22 102 -29 118
-59 118 -23 0 -25 -7 -46 -119z"/>
<path d="M1913 4688 c-50 -11 -50 -11 -23 -128 11 -47 22 -95 25 -108 4 -17
11 -22 28 -20 12 2 21 8 21 13 -1 6 -5 27 -8 48 -7 35 -5 38 24 48 17 6 35 19
40 29 25 47 1 112 -45 123 -11 3 -39 0 -62 -5z"/>
<path d="M1747 4639 c-17 -10 -18 -20 -12 -100 4 -49 5 -89 1 -89 -3 0 -28 34
-56 75 -28 41 -52 75 -54 75 -2 0 -17 -5 -34 -11 l-30 -10 40 -120 c32 -97 43
-119 59 -119 24 0 24 2 -6 90 -14 41 -24 78 -22 83 1 5 27 -26 57 -67 74 -106
86 -101 81 32 -2 56 -1 102 2 102 3 0 18 -39 34 -86 15 -48 34 -89 41 -92 32
-12 31 18 -6 128 -40 120 -53 134 -95 109z"/>
<path d="M3146 4632 c-16 -27 -85 -225 -81 -233 16 -25 35 -1 68 84 l36 92 -2
-110 c-1 -79 1 -110 10 -110 6 0 37 33 69 73 31 40 58 71 61 69 2 -3 -10 -39
-27 -81 -35 -90 -36 -92 -11 -99 16 -4 26 13 65 116 26 66 45 120 44 121 -15
9 -61 26 -62 24 -12 -18 -109 -138 -113 -138 -2 0 -1 40 3 90 l7 90 -27 10
c-33 12 -34 12 -40 2z"/>
<path d="M1363 4482 c-9 -6 -6 -19 12 -51 14 -24 25 -45 25 -47 0 -3 -56 -34
-62 -34 -2 0 -14 20 -28 44 -20 37 -27 43 -42 35 -10 -5 -18 -14 -18 -18 0 -5
27 -57 61 -115 54 -95 63 -105 80 -96 24 13 24 16 -6 65 -14 22 -25 43 -25 46
0 4 14 12 31 20 35 14 36 13 71 -51 15 -27 20 -29 38 -20 11 6 19 14 17 18
-68 125 -122 212 -131 212 -6 0 -16 -4 -23 -8z"/>
<path d="M3391 4396 c-86 -86 -92 -95 -74 -105 17 -8 24 -6 43 14 l23 24 39
-20 c37 -19 40 -23 34 -54 -6 -28 -3 -35 14 -40 12 -4 23 -5 25 -3 1 1 13 59
25 128 21 118 21 125 4 137 -10 7 -23 13 -29 13 -6 0 -53 -42 -104 -94z"/>
<path d="M3578 4302 c-48 -78 -63 -110 -56 -119 18 -22 32 -14 61 33 l27 45
30 -18 c17 -9 30 -20 30 -23 0 -3 -12 -23 -26 -44 -26 -38 -25 -64 2 -73 5 -1
39 45 76 104 50 80 64 111 56 120 -17 20 -26 16 -54 -27 -30 -46 -34 -47 -64
-22 l-23 19 23 41 c19 34 21 44 10 57 -7 8 -15 15 -19 15 -3 -1 -36 -49 -73
-108z"/>
<path d="M1077 4298 l-26 -23 34 -82 c18 -46 30 -83 26 -83 -3 0 -38 22 -75
50 -52 37 -73 47 -86 40 -43 -23 -40 -32 37 -130 42 -52 81 -96 88 -98 31 -7
24 23 -17 74 -23 30 -50 65 -58 76 -14 20 -13 20 5 10 11 -6 49 -31 85 -56 81
-57 99 -50 68 27 -25 64 -48 128 -48 135 0 2 28 -30 61 -72 55 -69 64 -76 77
-62 11 10 12 19 5 28 -102 130 -136 174 -143 181 -4 5 -19 -2 -33 -15z"/>
<path d="M3790 4165 c-58 -35 -109 -66 -115 -69 -5 -3 -1 -12 9 -20 17 -14 22
-14 48 2 28 16 29 16 59 -14 28 -28 29 -33 18 -58 -11 -23 -10 -29 4 -43 9 -9
18 -15 21 -12 2 2 27 57 56 122 49 114 51 120 34 138 -9 10 -20 19 -23 19 -3
0 -53 -30 -111 -65z"/>
<path d="M829 4094 c-11 -14 -3 -25 64 -88 42 -39 77 -75 77 -79 0 -21 -23
-47 -40 -47 -11 0 -51 29 -89 65 -72 69 -82 73 -100 51 -9 -11 4 -28 65 -85
64 -60 82 -71 111 -71 25 0 43 8 64 29 47 48 40 72 -48 162 -42 44 -80 79 -84
79 -3 0 -12 -7 -20 -16z"/>
<path d="M3976 4089 c-26 -20 -27 -25 -24 -93 3 -66 2 -71 -18 -74 -14 -2 -29
7 -43 24 -15 20 -25 24 -32 17 -17 -17 0 -53 34 -74 41 -24 58 -24 92 2 25 21
27 26 23 93 -2 59 0 71 14 74 9 2 27 -9 41 -24 24 -26 25 -26 36 -7 8 17 5 25
-17 46 -40 37 -72 43 -106 16z"/>
<path d="M2384 4002 c-181 -85 -332 -417 -399 -877 -8 -60 -18 -125 -21 -142
-4 -25 -1 -33 11 -33 9 0 15 9 15 24 0 74 67 386 116 540 57 177 125 307 203
387 49 49 78 70 109 78 137 37 258 -80 381 -371 23 -55 47 -66 37 -17 -27 135
-179 359 -274 405 -55 26 -129 29 -178 6z"/>
<path d="M643 3875 c-24 -25 -41 -50 -38 -56 4 -5 49 -43 101 -85 89 -71 96
-74 109 -57 12 16 9 22 -28 55 -32 27 -39 39 -31 48 9 9 25 7 69 -6 49 -16 58
-16 66 -4 5 8 9 17 9 21 0 7 -91 39 -112 39 -12 0 -18 8 -18 23 0 28 -9 41
-37 56 -34 18 -44 14 -90 -34z"/>
<path d="M4162 3867 c-17 -18 -22 -36 -22 -79 0 -68 -19 -91 -50 -63 -11 10
-22 26 -25 36 -8 23 -35 13 -35 -13 0 -28 54 -78 83 -78 13 0 36 9 51 21 23
18 26 28 26 79 0 70 18 92 48 62 11 -11 22 -26 24 -33 4 -12 7 -12 22 0 15 13
15 15 -1 40 -36 56 -84 67 -121 28z"/>
<path d="M4248 3674 c-91 -80 -96 -87 -86 -110 6 -13 15 -24 19 -24 5 0 45 13
90 30 46 16 84 28 86 26 2 -2 -28 -30 -66 -62 -38 -33 -70 -64 -70 -70 -1 -5
5 -18 12 -27 11 -15 21 -14 132 22 66 22 121 43 122 48 2 4 -1 14 -6 21 -6 10
-25 7 -91 -17 -46 -17 -85 -29 -87 -27 -2 2 25 28 61 57 66 55 77 77 51 99
-11 9 -30 7 -92 -14 -43 -14 -82 -26 -86 -26 -4 0 24 27 63 61 61 52 69 63 60
80 -6 10 -12 19 -13 19 -1 -1 -46 -39 -99 -86z"/>
<path d="M534 3721 c-82 -50 -63 -151 39 -200 73 -35 124 -25 152 29 33 64 6
123 -76 164 -63 31 -74 32 -115 7z m73 -42 c36 -13 93 -68 93 -89 0 -23 -20
-40 -48 -40 -36 0 -102 41 -119 73 -13 26 -13 31 3 48 20 22 32 23 71 8z"/>
<path d="M422 3548 c-5 -7 -19 -32 -31 -55 l-21 -41 113 -60 c81 -44 115 -57
125 -50 22 18 13 34 -33 56 -50 24 -52 30 -30 72 9 17 14 30 11 30 -2 0 -11 2
-19 6 -9 3 -19 -6 -27 -25 -7 -17 -17 -31 -22 -31 -8 0 -47 17 -56 25 -2 2 4
17 13 34 21 41 4 71 -23 39z"/>
<path d="M4370 3396 c-65 -7 -95 -15 -94 -23 3 -34 5 -35 39 -29 31 6 36 4 50
-23 20 -39 19 -50 -5 -76 -20 -21 -19 -55 1 -55 9 0 199 169 199 177 0 2 -5
13 -10 24 -12 22 -32 22 -180 5z"/>
<path d="M2895 3298 c-3 -8 3 -68 14 -134 30 -174 58 -447 62 -601 1 -40 5
-73 9 -73 15 0 20 135 10 292 -9 142 -26 286 -56 465 -7 47 -30 76 -39 51z"/>
<path d="M381 2978 c-42 -111 -48 -513 -12 -721 43 -246 118 -464 229 -664 57
-104 73 -121 90 -100 7 8 -9 47 -52 124 -103 183 -182 407 -222 628 -23 124
-30 443 -13 577 16 133 17 170 2 175 -7 3 -17 -6 -22 -19z"/>
<path d="M4536 2982 c-3 -5 2 -51 11 -103 23 -131 23 -467 -1 -604 -43 -258
-147 -544 -262 -727 -29 -45 -31 -68 -6 -68 12 0 32 24 60 73 181 318 272 662
272 1030 0 135 -18 335 -35 388 -6 19 -30 26 -39 11z"/>
<path d="M1597 2283 c-207 -296 -324 -607 -288 -766 30 -135 122 -195 286
-184 111 7 321 77 389 129 18 14 17 15 -10 13 -16 -1 -67 -18 -114 -37 -162
-66 -275 -87 -367 -68 -191 40 -204 271 -33 610 24 48 38 86 32 88 -6 2 -9 9
-6 17 3 8 12 11 19 9 8 -3 19 5 26 18 6 13 43 69 81 126 62 94 73 122 48 122
-5 0 -33 -35 -63 -77z"/>
<path d="M2850 2143 c-8 -3 -46 -35 -85 -72 -130 -125 -312 -274 -486 -399
-48 -34 -89 -69 -93 -78 -3 -8 -10 -12 -16 -9 -5 3 -10 1 -10 -4 0 -6 4 -11 8
-11 26 0 246 154 377 264 127 107 295 269 288 279 -3 6 -1 7 5 3 6 -3 16 3 22
14 6 11 9 20 8 19 -2 0 -10 -3 -18 -6z"/>
<path d="M3982 1308 c-19 -19 -14 -31 28 -63 l40 -29 -30 -30 -30 -30 -27 25
c-54 49 -62 53 -78 39 -8 -7 -15 -16 -15 -20 0 -4 48 -47 106 -95 105 -87 106
-88 125 -68 19 19 19 19 -26 53 -25 18 -45 37 -45 40 0 4 11 17 25 30 28 26
25 27 89 -24 30 -23 39 -26 51 -16 8 7 15 16 15 20 0 7 -204 180 -212 180 -2
0 -9 -5 -16 -12z"/>
<path d="M897 1250 c-26 -21 -28 -26 -25 -94 3 -70 3 -71 -23 -74 -19 -2 -33
4 -48 24 -21 27 -51 28 -51 1 0 -18 39 -53 74 -67 36 -13 91 3 106 31 6 10 9
47 8 82 -3 57 -1 62 19 65 12 2 30 -6 42 -19 11 -13 26 -19 35 -16 23 9 20 20
-12 51 -40 38 -89 44 -125 16z"/>
<path d="M1054 1119 c-4 -7 2 -19 14 -30 12 -9 22 -20 22 -24 0 -3 -32 -44
-71 -91 -40 -47 -70 -86 -68 -88 34 -28 42 -24 117 65 l74 88 31 -15 c24 -13
31 -14 38 -2 13 20 13 20 -59 63 -79 47 -88 50 -98 34z"/>
<path d="M3767 1088 c-67 -46 -72 -30 52 -165 l75 -81 58 39 c57 39 75 69 41
69 -9 0 -31 -11 -48 -24 l-32 -25 -27 28 c-14 15 -26 30 -26 33 0 4 16 16 36
29 32 19 34 23 21 37 -14 13 -19 12 -45 -7 -38 -27 -43 -26 -71 3 l-23 24 36
24 c39 25 42 31 24 46 -9 7 -29 -1 -71 -30z"/>
<path d="M1185 878 c-72 -104 -76 -113 -59 -125 21 -16 17 -20 88 87 31 47 56
80 56 75 0 -6 -12 -48 -25 -94 -14 -47 -25 -93 -25 -103 0 -28 29 -21 76 17
24 19 65 52 91 73 52 42 49 32 -21 -67 -25 -36 -46 -70 -46 -77 0 -9 21 -24
34 -24 5 0 146 215 146 223 0 3 -14 14 -30 22 l-31 16 -79 -66 c-44 -36 -80
-60 -80 -53 0 7 9 42 20 78 26 86 25 97 -9 115 l-30 15 -76 -112z"/>
<path d="M3565 946 c-18 -13 -15 -19 54 -112 41 -55 77 -103 81 -108 8 -8 130
51 130 63 0 3 -4 12 -9 20 -7 11 -16 9 -50 -10 -38 -21 -42 -21 -54 -6 -6 9
-37 50 -67 91 -30 42 -58 76 -61 76 -3 0 -14 -6 -24 -14z"/>
<path d="M3386 857 c-17 -12 -16 -19 5 -142 12 -72 23 -131 24 -132 0 -1 11 1
24 4 20 5 22 10 18 40 -6 33 -4 35 39 55 l46 20 23 -22 c18 -17 31 -21 50 -16
15 4 25 10 23 14 -7 18 -207 192 -220 192 -8 0 -22 -6 -32 -13z"/>
<path d="M1686 768 c-36 -88 -78 -209 -75 -212 2 -2 14 -7 26 -10 19 -6 24 -1
40 44 10 27 21 50 24 50 4 0 14 -27 23 -60 14 -48 23 -63 43 -71 14 -5 28 -7
31 -4 3 3 -4 36 -16 73 -12 38 -22 73 -22 78 0 5 29 27 65 49 43 26 60 42 52
47 -24 15 -53 8 -105 -27 -56 -39 -60 -37 -36 20 13 31 13 39 2 46 -24 16 -39
9 -52 -23z"/>
<path d="M3180 769 c-39 -16 -60 -40 -60 -69 0 -36 27 -58 97 -79 40 -12 59
-23 62 -36 4 -24 -24 -45 -61 -45 -18 0 -28 -5 -28 -15 0 -23 27 -29 69 -16
46 13 74 42 74 76 0 38 -30 64 -95 82 -31 9 -60 23 -63 32 -8 20 21 41 58 41
22 0 28 4 23 16 -3 9 -6 18 -6 20 0 7 -45 3 -70 -7z"/>
<path d="M2036 575 c-10 -70 -16 -129 -13 -132 3 -3 35 -8 71 -10 59 -5 66 -4
90 20 30 30 33 62 9 89 -15 17 -15 20 6 39 50 47 6 103 -90 114 l-56 6 -17
-126z"/>
<path d="M2729 675 c-3 -2 -1 -41 3 -86 4 -46 6 -84 4 -87 -5 -4 -93 129 -103
154 -6 16 -59 19 -68 4 -6 -10 13 -238 21 -251 2 -4 13 -5 24 -2 19 5 20 11
13 89 -3 46 -4 84 -1 84 3 0 28 -35 54 -77 55 -90 57 -92 91 -85 l26 5 -7 106
c-9 131 -14 151 -35 151 -10 0 -20 -2 -22 -5z"/>
<path d="M2356 651 c-10 -16 -96 -224 -96 -231 0 -4 9 -10 21 -13 16 -4 24 1
35 29 15 36 23 38 85 28 31 -5 38 -11 43 -35 4 -24 11 -29 34 -29 l29 0 -40
130 -41 130 -32 0 c-18 0 -35 -4 -38 -9z"/>
</g>
</svg>
